<svg xmlns:svg="http://www.w3.org/2000/svg" xmlns="http://www.w3.org/2000/svg" height="72.2" width="72.2" xml:space="preserve" enable-background="new 0 0 200 200" viewBox="0 0 72.2 72.2" y="0" x="0" id="Layer_1" version="1.1">
<style>
.s0{
	fill:#ee6232;
}

</style>  <metadata id="metadata3458"/>
  <defs id="defs3456"/>
  <g transform="translate(-63,-63.9)" id="g3436">
    <path id="path3438" d="m99.1 118.2c-10 0-18.2-8.1-18.2-18.2 0-10.1 8.1-18.2 18.2-18.2 10.1 0 18.2 8.1 18.2 18.2 0 10.1-8.2 18.2-18.2 18.2zm0-34.4c-8.9 0-16.2 7.3-16.2 16.2 0 8.9 7.3 16.2 16.2 16.2 8.9 0 16.2-7.3 16.2-16.2 0-8.9-7.3-16.2-16.2-16.2z" fill="#ee6232"/>
  </g>
  <g transform="translate(-63,-63.9)" id="g3440">
    <g id="g3442">
      <path id="path3444" d="m116.4 100.1c-0.1 0.8-0.4 1.5-0.7 2.4 2.2 3 3 5.8 2 7.5-0.8 1.5-3 2.4-6.1 2.4-4.7 0-10.7-1.9-16.6-5.1-11.1-6.1-16.5-14.1-14.5-17.7 0.8-1.5 3-2.4 6.1-2.4 0.4 0 0.8 0 1.3 0.1 0.2-0.7 0.5-1.4 1-1.9-0.8-0.1-1.5-0.1-2.2-0.1-3.9 0-6.7 1.2-7.9 3.4-2.9 5.2 3.9 14.2 15.3 20.5 6.2 3.4 12.6 5.3 17.6 5.3 3.9 0 6.7-1.2 7.9-3.4 1.4-3 0.1-7-3.2-11z" fill="#ee6232"/>
    </g>
  </g>
  <g transform="translate(-63,-63.9)" id="g3446">
    <path id="path3448" d="m96.1 98.4c-3 0-5.5-2.5-5.5-5.5 0-3 2.5-5.5 5.5-5.5 3 0 5.5 2.5 5.5 5.5 0 3-2.5 5.5-5.5 5.5zm0-9c-1.9 0-3.5 1.6-3.5 3.5 0 1.9 1.6 3.5 3.5 3.5 1.9 0 3.5-1.6 3.5-3.5 0-1.9-1.6-3.5-3.5-3.5z" fill="#ee6232"/>
  </g>
  <g transform="translate(-63,-63.9)" id="g3450">
    <path id="path3452" d="M99.1 136.1C79.2 136.1 63 119.9 63 100 63 80.1 79.2 63.9 99.1 63.9c19.9 0 36.1 16.2 36.1 36.1 0 19.9-16.2 36.1-36.1 36.1zm0-70.2C80.3 65.9 65 81.2 65 100c0 18.8 15.3 34.1 34.1 34.1 18.8 0 34.1-15.3 34.1-34.1 0-18.8-15.3-34.1-34.1-34.1z" fill="#ee6232"/>
  </g>
</svg>
