<svg xmlns:svg="http://www.w3.org/2000/svg" xmlns="http://www.w3.org/2000/svg" height="72.2" width="72.2" xml:space="preserve" enable-background="new 0 0 200 200" viewBox="0 0 72.2 72.2" y="0" x="0" id="Layer_1" version="1.1">
  <metadata id="metadata3808"/>
  <defs id="defs3806"/>
  <g transform="translate(-63,-63.9)" id="g3784">
    <path id="path3786" d="m99.1 119c-0.2 0-0.3 0-0.5-0.1l-16.4-9.5c-0.3-0.2-0.5-0.5-0.5-0.9l0-18.9c0-0.4 0.2-0.7 0.5-0.9l16.4-9.5c0.3-0.2 0.7-0.2 1 0l16.4 9.5c0.3 0.2 0.5 0.5 0.5 0.9l0 18.9c0 0.4-0.2 0.7-0.5 0.9l-16.4 9.5c-0.2 0-0.3 0.1-0.5 0.1zm-15.4-11.1 15.4 8.9 15.4-8.9 0-17.8-15.4-8.9-15.4 8.9 0 17.8z" fill="#ee6232"/>
  </g>
  <g transform="translate(-63,-63.9)" id="g3788">
    <rect id="rect3790" height="16" width="2" y="91.1" x="85.6" fill="#ee6232"/>
  </g>
  <g transform="translate(-63,-63.9)" id="g3792">
    <rect id="rect3794" height="2" width="16" transform="matrix(0.8671,0.4981,-0.4981,0.8671,57.9047,-40.7292)" y="87.2" x="97.3" fill="#ee6232"/>
  </g>
  <g transform="translate(-63,-63.9)" id="g3796">
    <rect id="rect3798" height="16" width="2" transform="matrix(0.499,0.8666,-0.8666,0.499,148.0045,-36.2604)" y="101.9" x="104.4" fill="#ee6232"/>
  </g>
  <g transform="translate(-63,-63.9)" id="g3800">
    <path id="path3802" d="M99.1 136.1C79.2 136.1 63 119.9 63 100 63 80.1 79.2 63.9 99.1 63.9c19.9 0 36.1 16.2 36.1 36.1 0 19.9-16.2 36.1-36.1 36.1zm0-70.2C80.3 65.9 65 81.2 65 100c0 18.8 15.3 34.1 34.1 34.1 18.8 0 34.1-15.3 34.1-34.1 0-18.8-15.3-34.1-34.1-34.1z" fill="#ee6232"/>
  </g>
</svg>
