<svg xmlns:svg="http://www.w3.org/2000/svg" xmlns="http://www.w3.org/2000/svg" height="72.2" width="72.2" xml:space="preserve" enable-background="new 0 0 200 200" viewBox="0 0 72.2 72.2" y="0" x="0" id="Layer_1" version="1.1">
  <metadata id="metadata4478"/>
  <defs id="defs4476"/>
  <g transform="translate(-63,-63.8)" id="g4442">
    <rect id="rect4444" height="2" width="19.9" y="85.7" x="89.2" fill="#ee6232"/>
  </g>
  <g transform="translate(-63,-63.8)" id="g4446">
    <rect id="rect4448" height="2" width="29.2" y="89.6" x="85.1" fill="#ee6232"/>
  </g>
  <g transform="translate(-63,-63.8)" id="g4450">
    <rect id="rect4452" height="2" width="19.9" y="93.6" x="89.2" fill="#ee6232"/>
  </g>
  <g transform="translate(-63,-63.8)" id="g4454">
    <rect id="rect4456" height="2" width="19.9" y="98.9" x="89.2" fill="#ee6232"/>
  </g>
  <g transform="translate(-63,-63.8)" id="g4458">
    <path id="path4460" d="m108.2 112.7-18 0c-0.6 0-1-0.4-1-1l0-7.9c0-0.6 0.4-1 1-1l18.1 0c0.6 0 1 0.4 1 1l0 7.9c-0.1 0.6-0.5 1-1.1 1zm-17-2 16.1 0 0-5.9-16.1 0 0 5.9z" fill="#ee6232"/>
  </g>
  <g transform="translate(-63,-63.8)" id="g4462">
    <rect id="rect4464" height="8.1" width="2" y="106.1" x="89.2" fill="#ee6232"/>
  </g>
  <g transform="translate(-63,-63.8)" id="g4466">
    <rect id="rect4468" height="6.3" width="2" y="108" x="107.2" fill="#ee6232"/>
  </g>
  <g transform="translate(-63,-63.8)" id="g4470">
    <path id="path4472" d="M99.1 136C79.2 136 63 119.8 63 99.9 63 80 79.2 63.8 99.1 63.8c19.9 0 36.1 16.2 36.1 36.1 0 19.9-16.2 36.1-36.1 36.1zm0-70.2C80.3 65.8 65 81.1 65 99.9c0 18.8 15.3 34.1 34.1 34.1 18.8 0 34.1-15.3 34.1-34.1 0-18.8-15.3-34.1-34.1-34.1z" fill="#ee6232"/>
  </g>
</svg>