<svg xmlns:svg="http://www.w3.org/2000/svg" xmlns="http://www.w3.org/2000/svg" height="72.2" width="72.2" xml:space="preserve" enable-background="new 0 0 200 200" viewBox="0 0 72.2 72.2" y="0" x="0" id="Layer_1" version="1.1">
  <metadata id="metadata4812"/>
  <defs id="defs4810"/>
  <g transform="translate(-63,-63.9)" id="g4796">
    <path id="path4798" d="M98.8 120.1 98.5 120c-1.5-0.5-14.7-5-18.3-15.2 0-0.1-0.1-0.2-0.1-0.4L80 104.2c-2.4-7.2 0.1-14.4 6.1-17.7 4.5-2.2 9.3-1.4 12.7 2 2.1-2.1 4.8-3.2 7.6-3.2 1.7 0 3.4 0.4 5.1 1.2 3.8 2 6.3 5.7 6.9 10 0.2 1.4 0.2 2.8 0 4.3l0 0.3c-0.2 1.2-0.5 2.5-0.9 3.6-3.7 10.2-16.9 14.7-18.3 15.2l-0.4 0.2zM91.2 87.4c-1.4 0-2.8 0.3-4.2 1-5.1 2.8-7.2 9-5.1 15.2l0.1 0.3c0 0.1 0.1 0.2 0.1 0.3 3.2 8.8 14.7 13.1 16.8 13.9 2.1-0.7 13.6-5 16.8-13.8 0.4-1.1 0.7-2.2 0.9-3.3l0-0.2c0.2-1.3 0.2-2.6 0-3.7-0.5-3.7-2.7-6.8-5.9-8.5-1.3-0.7-2.8-1-4.2-1-2.6 0-5 1.1-6.8 3.3l-0.8 0.9-0.8-0.9c-1.9-2.4-4.3-3.5-6.9-3.5z" fill="#ee6232"/>
  </g>
  <g transform="translate(-63,-63.9)" id="g4800">
    <path id="path4802" d="m96.8 110c-0.4 0-0.7-0.2-0.9-0.6l-3.3-6.9-8.8 0 0-2 9.4 0c0.4 0 0.7 0.2 0.9 0.6l2.4 5.1 3.4-12c0.1-0.4 0.5-0.7 0.9-0.7 0.4 0 0.8 0.3 1 0.7l2.1 6.6 9.8 0 0 2-10.5 0c-0.4 0-0.8-0.3-1-0.7l-1.3-4.1-3.2 11.4c0 0.3-0.4 0.6-0.9 0.6 0.1 0 0.1 0 0 0z" fill="#ee6232"/>
  </g>
  <g transform="translate(-63,-63.9)" id="g4804">
    <path id="path4806" d="M99.1 136.1C79.2 136.1 63 119.9 63 100 63 80.1 79.2 63.9 99.1 63.9c19.9 0 36.1 16.2 36.1 36.1 0 19.9-16.2 36.1-36.1 36.1zm0-70.2C80.3 65.9 65 81.2 65 100c0 18.8 15.3 34.1 34.1 34.1 18.8 0 34.1-15.3 34.1-34.1 0-18.8-15.3-34.1-34.1-34.1z" fill="#ee6232"/>
  </g>
</svg>