<svg xmlns:svg="http://www.w3.org/2000/svg" xmlns="http://www.w3.org/2000/svg" xml:space="preserve" enable-background="new 0 0 200 200" viewBox="0 0 72.2 72.2" y="0" x="0" id="Layer_1" version="1.1">
  <metadata id="metadata5087"/>
  <defs id="defs5085"/>
  <g transform="translate(-63,-64.4)" id="g5071">
    <path id="path5073" d="m100 107.8-1.9 0c-7 0-12.7-5.7-12.7-12.7l0-6.8 2 0 0 6.8c0 5.9 4.8 10.7 10.7 10.7l1.9 0c5.9 0 10.7-4.8 10.7-10.7l0-7 2 0 0 7c0 7-5.7 12.7-12.7 12.7z" fill="#ee6232"/>
  </g>
  <g transform="translate(-63,-64.4)" id="g5075">
    <rect id="rect5077" height="29.8" width="2" y="88.1" x="98.1" fill="#ee6232"/>
  </g>
  <g transform="translate(-63,-64.4)" id="g5079">
    <path id="path5081" d="M99.1 136.6C79.2 136.6 63 120.4 63 100.5 63 80.6 79.2 64.4 99.1 64.4c19.9 0 36.1 16.2 36.1 36.1 0 19.9-16.2 36.1-36.1 36.1zm0-70.2C80.3 66.4 65 81.7 65 100.5c0 18.8 15.3 34.1 34.1 34.1 18.8 0 34.1-15.3 34.1-34.1 0-18.8-15.3-34.1-34.1-34.1z" fill="#ee6232"/>
  </g>
</svg>
