<svg xmlns:svg="http://www.w3.org/2000/svg" xmlns="http://www.w3.org/2000/svg" xml:space="preserve" enable-background="new 0 0 200 200" viewBox="0 0 72.2 72.2" y="0" x="0" id="Layer_1" version="1.1">
  <metadata id="metadata4988"/>
  <defs id="defs4986"/>
  <g transform="translate(-63,-63.9)" id="g4964">
    <path id="path4966" d="m99.1 122c-6.3 0-11.2-9.7-11.2-22 0-12.3 4.9-22 11.2-22 6.3 0 11.2 9.7 11.2 22 0 12.3-4.9 22-11.2 22zm0-42c-5 0-9.2 9.2-9.2 20 0 10.8 4.2 20 9.2 20 5 0 9.2-9.2 9.2-20 0-10.8-4.2-20-9.2-20z" fill="#ee6232"/>
  </g>
  <g transform="translate(-63,-63.9)" id="g4968">
    <path id="path4970" d="m88.4 115.3c-3.7 0-6.4-1.2-7.8-3.4-1.7-2.6-1.3-6.4 1.2-10.5 2.4-3.9 6.3-7.8 11.2-10.9 5.7-3.7 11.9-5.8 16.8-5.8 3.7 0 6.4 1.2 7.8 3.4 1.7 2.6 1.3 6.4-1.2 10.5-2.4 3.9-6.3 7.8-11.2 10.9-5.8 3.6-11.9 5.8-16.8 5.8zm21.4-28.6c-4.5 0-10.4 2-15.7 5.5-4.6 3-8.3 6.6-10.6 10.2-2.1 3.4-2.5 6.4-1.3 8.4 1.3 2 4 2.4 6.1 2.4 4.5 0 10.4-2 15.7-5.5 4.6-3 8.3-6.6 10.6-10.2 2.1-3.4 2.5-6.4 1.3-8.4-1.3-1.9-4-2.4-6.1-2.4z" fill="#ee6232"/>
  </g>
  <g transform="translate(-63,-63.9)" id="g4972">
    <path id="path4974" d="m109.8 115c-4.9 0-10.9-2-16.5-5.4C82.7 103.2 77 93.9 80.3 88.5 81.7 86.2 84.6 85 88.4 85c4.9 0 10.9 2 16.5 5.4 10.5 6.4 16.2 15.7 12.9 21.1-1.3 2.3-4.2 3.5-8 3.5zM88.4 87c-3.1 0-5.4 0.9-6.4 2.6-2.6 4.3 3 12.7 12.2 18.3 5.3 3.3 11 5.1 15.5 5.1 3.1 0 5.4-0.9 6.4-2.6 2.6-4.3-3-12.7-12.2-18.3C98.6 88.9 92.9 87 88.4 87Z" fill="#ee6232"/>
  </g>
  <g transform="translate(-63,-63.9)" id="g4976">
    <path id="path4978" d="m98.9 105.5c-3 0-5.5-2.5-5.5-5.5 0-3 2.5-5.5 5.5-5.5 3 0 5.5 2.5 5.5 5.5 0 3-2.5 5.5-5.5 5.5zm0-9c-1.9 0-3.5 1.6-3.5 3.5 0 1.9 1.6 3.5 3.5 3.5 1.9 0 3.5-1.6 3.5-3.5 0-1.9-1.6-3.5-3.5-3.5z" fill="#ee6232"/>
  </g>
  <g transform="translate(-63,-63.9)" id="g4980">
    <path id="path4982" d="M99.1 136.1C79.2 136.1 63 119.9 63 100 63 80.1 79.2 63.9 99.1 63.9c19.9 0 36.1 16.2 36.1 36.1 0 19.9-16.2 36.1-36.1 36.1zm0-70.2C80.3 65.9 65 81.2 65 100c0 18.8 15.3 34.1 34.1 34.1 18.8 0 34.1-15.3 34.1-34.1 0-18.8-15.3-34.1-34.1-34.1z" fill="#ee6232"/>
  </g>
</svg>
