<svg xmlns="http://www.w3.org/2000/svg" viewBox="0 0 25 25"><g><g><path fill="" d="M6.64 11.035l.02-.02A1.036 1.036 0 0 1 8.106 12.5l-5.128 5.128a3.078 3.078 0 0 0 0 4.395 3.078 3.078 0 0 0 4.395 0l5.372-5.372a3.079 3.079 0 0 0 0-4.395c-.39-.302-.727-.638-.802-1.068-.099-.564.278-1.1.842-1.2.563-.098 1.327.24 1.425.803a5.192 5.192 0 0 1 0 7.325l-5.372 5.372a5.191 5.191 0 0 1-7.325 0 5.191 5.191 0 0 1 0-7.325zm9.522-9.522a5.191 5.191 0 0 1 7.326 0 5.19 5.19 0 0 1 0 7.324l-5.128 5.128-.024.024a1.036 1.036 0 0 1-1.441-1.489l5.128-5.128a3.079 3.079 0 0 0 0-4.395 3.078 3.078 0 0 0-4.395 0L12.256 8.35a3.078 3.078 0 0 0 0 4.395l.158-.158a1.26 1.26 0 0 1 0 1.781c-.492.492-1.131.334-1.623-.158a5.191 5.191 0 0 1 0-7.325z"/></g></g></svg>
