<svg xmlns="http://www.w3.org/2000/svg" viewBox="0 0 18 15"><g><g><path d="M5.534 14.3c6.64 0 10.27-5.501 10.27-10.271 0-.157-.002-.312-.01-.467a7.344 7.344 0 0 0 1.801-1.869 7.208 7.208 0 0 1-2.073.568A3.623 3.623 0 0 0 17.11.264a7.233 7.233 0 0 1-2.292.877 3.61 3.61 0 0 0-6.152 3.292c-3-.151-5.661-1.588-7.441-3.772a3.607 3.607 0 0 0 1.118 4.82 3.583 3.583 0 0 1-1.636-.452v.046a3.611 3.611 0 0 0 2.896 3.539 3.62 3.62 0 0 1-1.63.062 3.614 3.614 0 0 0 3.372 2.507A7.244 7.244 0 0 1 .86 12.73c-.291 0-.578-.017-.861-.05A10.22 10.22 0 0 0 5.534 14.3"/></g></g></svg>
