<svg xmlns="http://www.w3.org/2000/svg" width="20" height="12" viewBox="0 0 20 12"><g><g><path fill="" d="M16.083 5.558s2.55-3.598 2.804-4.78c.084-.423-.101-.66-.54-.66h-2.214c-.506 0-.692.22-.844.54 0 0-1.197 2.55-2.653 4.157-.467.52-.705.675-.963.675-.208 0-.304-.173-.304-.642V.743c0-.574-.067-.743-.54-.743H7.28c-.27 0-.44.157-.44.372 0 .54.829.663.829 2.128v3.024c0 .608-.034.845-.321.845-.76 0-2.568-2.619-3.582-5.592C3.565.17 3.345 0 2.771 0H.557C.237 0 0 .22 0 .54c0 .592.693 3.329 3.413 6.995 1.824 2.466 4.223 3.8 6.385 3.8 1.318 0 1.639-.219 1.639-.777V8.666c0-.473.186-.675.456-.675.304 0 .84.097 2.095 1.334 1.486 1.42 1.588 2.01 2.399 2.01h2.483c.253 0 .49-.118.49-.54 0-.558-.727-1.554-1.841-2.737-.457-.608-1.2-1.267-1.436-1.57-.338-.356-.237-.558 0-.93"/></g></g></svg>
