<?xml version="1.0" encoding="UTF-8" standalone="no"?><svg xmlns="http://www.w3.org/2000/svg" xmlns:xlink="http://www.w3.org/1999/xlink"><symbol id="rss" version="1.1" xmlns="http://www.w3.org/2000/svg" xmlns:xlink="http://www.w3.org/1999/xlink" x="0px" y="0px" viewBox="0 0 24.332 24.332" style="enable-background:new 0 0 24.332 24.332;" xml:space="preserve"><g><g><path d="M3.607,17.11C1.618,17.11,0,18.726,0,20.717c0,1.984,1.618,3.604,3.607,3.604s3.607-1.619,3.607-3.604
			C7.214,18.726,5.596,17.11,3.607,17.11z"></path><path d="M0.375,7.951C0.169,7.951,0,8.12,0,8.328v4.578c0,0.206,0.169,0.374,0.375,0.374c5.879,0,10.665,4.784,10.665,10.665
			c0,0.205,0.166,0.375,0.375,0.375h4.581h0.016c0.209,0,0.377-0.17,0.377-0.375l-0.018-0.117
			C16.305,15.064,9.152,7.951,0.375,7.951z"></path><path d="M24.311,23.828C24.246,10.681,13.531,0.01,0.375,0.01C0.169,0.01,0,0.179,0,0.387v4.711c0,0.207,0.169,0.375,0.375,0.375
			c10.186,0,18.472,8.287,18.472,18.473c0,0.205,0.168,0.375,0.373,0.375h4.713h0.02c0.205,0,0.379-0.17,0.379-0.375L24.311,23.828z"></path></g></g></symbol><symbol id="chain" xmlns="http://www.w3.org/2000/svg" viewBox="0 0 25 25"><g><g><path d="M6.64 11.035l.02-.02A1.036 1.036 0 0 1 8.106 12.5l-5.128 5.128a3.078 3.078 0 0 0 0 4.395 3.078 3.078 0 0 0 4.395 0l5.372-5.372a3.079 3.079 0 0 0 0-4.395c-.39-.302-.727-.638-.802-1.068-.099-.564.278-1.1.842-1.2.563-.098 1.327.24 1.425.803a5.192 5.192 0 0 1 0 7.325l-5.372 5.372a5.191 5.191 0 0 1-7.325 0 5.191 5.191 0 0 1 0-7.325zm9.522-9.522a5.191 5.191 0 0 1 7.326 0 5.19 5.19 0 0 1 0 7.324l-5.128 5.128-.024.024a1.036 1.036 0 0 1-1.441-1.489l5.128-5.128a3.079 3.079 0 0 0 0-4.395 3.078 3.078 0 0 0-4.395 0L12.256 8.35a3.078 3.078 0 0 0 0 4.395l.158-.158a1.26 1.26 0 0 1 0 1.781c-.492.492-1.131.334-1.623-.158a5.191 5.191 0 0 1 0-7.325z"></path></g></g></symbol><symbol id="ok" xmlns="http://www.w3.org/2000/svg" width="13" height="21" viewBox="0 0 13 21"><g><g><path d="M5.43 10.86A5.436 5.436 0 0 1 0 5.43 5.437 5.437 0 0 1 5.43 0a5.436 5.436 0 0 1 5.431 5.431 5.435 5.435 0 0 1-5.43 5.429m0-7.677A2.251 2.251 0 0 0 3.182 5.43 2.251 2.251 0 0 0 5.431 7.68 2.251 2.251 0 0 0 7.679 5.43a2.251 2.251 0 0 0-2.248-2.248"></path></g><g><path d="M8.291 15.245a10.157 10.157 0 0 0 3.154-1.306 1.59 1.59 0 0 0-1.695-2.694 6.897 6.897 0 0 1-7.312 0 1.59 1.59 0 1 0-1.695 2.694 10.176 10.176 0 0 0 3.153 1.306L.861 18.28a1.59 1.59 0 0 0 2.25 2.25l2.983-2.984 2.984 2.984a1.59 1.59 0 0 0 2.249 0 1.588 1.588 0 0 0 0-2.25z"></path></g></g></symbol><symbol id="fb" xmlns="http://www.w3.org/2000/svg" width="18" height="18" viewBox="0 0 18 18"><g><g><path d="M16.629 0H.97A.971.971 0 0 0 0 .971V16.63c0 .536.435.971.971.971h8.43v-6.816H7.107V8.128h2.294V6.17c0-2.273 1.388-3.51 3.416-3.51.971 0 1.806.072 2.05.104v2.376H13.46c-1.103 0-1.316.524-1.316 1.293v1.696h2.63l-.343 2.656h-2.287V17.6h4.485a.971.971 0 0 0 .97-.971V.97A.971.971 0 0 0 16.63 0"></path></g></g></symbol><symbol id="tw" xmlns="http://www.w3.org/2000/svg" width="18" height="15" viewBox="0 0 18 15"><g><g><path d="M5.534 14.3c6.64 0 10.27-5.501 10.27-10.271 0-.157-.002-.312-.01-.467a7.344 7.344 0 0 0 1.801-1.869 7.208 7.208 0 0 1-2.073.568A3.623 3.623 0 0 0 17.11.264a7.233 7.233 0 0 1-2.292.877 3.61 3.61 0 0 0-6.152 3.292c-3-.151-5.661-1.588-7.441-3.772a3.607 3.607 0 0 0 1.118 4.82 3.583 3.583 0 0 1-1.636-.452v.046a3.611 3.611 0 0 0 2.896 3.539 3.62 3.62 0 0 1-1.63.062 3.614 3.614 0 0 0 3.372 2.507A7.244 7.244 0 0 1 .86 12.73c-.291 0-.578-.017-.861-.05A10.22 10.22 0 0 0 5.534 14.3"></path></g></g></symbol><symbol id="vk" xmlns="http://www.w3.org/2000/svg" width="20" height="12" viewBox="0 0 20 12"><g><g><path d="M16.083 5.558s2.55-3.598 2.804-4.78c.084-.423-.101-.66-.54-.66h-2.214c-.506 0-.692.22-.844.54 0 0-1.197 2.55-2.653 4.157-.467.52-.705.675-.963.675-.208 0-.304-.173-.304-.642V.743c0-.574-.067-.743-.54-.743H7.28c-.27 0-.44.157-.44.372 0 .54.829.663.829 2.128v3.024c0 .608-.034.845-.321.845-.76 0-2.568-2.619-3.582-5.592C3.565.17 3.345 0 2.771 0H.557C.237 0 0 .22 0 .54c0 .592.693 3.329 3.413 6.995 1.824 2.466 4.223 3.8 6.385 3.8 1.318 0 1.639-.219 1.639-.777V8.666c0-.473.186-.675.456-.675.304 0 .84.097 2.095 1.334 1.486 1.42 1.588 2.01 2.399 2.01h2.483c.253 0 .49-.118.49-.54 0-.558-.727-1.554-1.841-2.737-.457-.608-1.2-1.267-1.436-1.57-.338-.356-.237-.558 0-.93"></path></g></g></symbol><symbol id="chemistry" xmlns:svg="http://www.w3.org/2000/svg" xmlns="http://www.w3.org/2000/svg" height="72.2" width="72.2" xml:space="preserve" enable-background="new 0 0 200 200" viewBox="0 0 72.2 72.2" y="0" x="0" version="1.1"><g transform="translate(-63,-63.9)"><path d="m99.1 119c-0.2 0-0.3 0-0.5-0.1l-16.4-9.5c-0.3-0.2-0.5-0.5-0.5-0.9l0-18.9c0-0.4 0.2-0.7 0.5-0.9l16.4-9.5c0.3-0.2 0.7-0.2 1 0l16.4 9.5c0.3 0.2 0.5 0.5 0.5 0.9l0 18.9c0 0.4-0.2 0.7-0.5 0.9l-16.4 9.5c-0.2 0-0.3 0.1-0.5 0.1zm-15.4-11.1 15.4 8.9 15.4-8.9 0-17.8-15.4-8.9-15.4 8.9 0 17.8z"></path></g><g transform="translate(-63,-63.9)"><rect height="16" width="2" y="91.1" x="85.6"></rect></g><g transform="translate(-63,-63.9)"><rect height="2" width="16" transform="matrix(0.8671,0.4981,-0.4981,0.8671,57.9047,-40.7292)" y="87.2" x="97.3"></rect></g><g transform="translate(-63,-63.9)"><rect height="16" width="2" transform="matrix(0.499,0.8666,-0.8666,0.499,148.0045,-36.2604)" y="101.9" x="104.4"></rect></g><g transform="translate(-63,-63.9)"><path d="M99.1 136.1C79.2 136.1 63 119.9 63 100 63 80.1 79.2 63.9 99.1 63.9c19.9 0 36.1 16.2 36.1 36.1 0 19.9-16.2 36.1-36.1 36.1zm0-70.2C80.3 65.9 65 81.2 65 100c0 18.8 15.3 34.1 34.1 34.1 18.8 0 34.1-15.3 34.1-34.1 0-18.8-15.3-34.1-34.1-34.1z"></path></g></symbol><symbol id="astronomy" xmlns:svg="http://www.w3.org/2000/svg" xmlns="http://www.w3.org/2000/svg" height="72.2" width="72.2" xml:space="preserve" enable-background="new 0 0 200 200" viewBox="0 0 72.2 72.2" y="0" x="0" version="1.1"><style><![CDATA[.s0{fill:#ee6232;}]]></style><g transform="translate(-63,-63.9)"><path d="m99.1 118.2c-10 0-18.2-8.1-18.2-18.2 0-10.1 8.1-18.2 18.2-18.2 10.1 0 18.2 8.1 18.2 18.2 0 10.1-8.2 18.2-18.2 18.2zm0-34.4c-8.9 0-16.2 7.3-16.2 16.2 0 8.9 7.3 16.2 16.2 16.2 8.9 0 16.2-7.3 16.2-16.2 0-8.9-7.3-16.2-16.2-16.2z"></path></g><g transform="translate(-63,-63.9)"><g><path d="m116.4 100.1c-0.1 0.8-0.4 1.5-0.7 2.4 2.2 3 3 5.8 2 7.5-0.8 1.5-3 2.4-6.1 2.4-4.7 0-10.7-1.9-16.6-5.1-11.1-6.1-16.5-14.1-14.5-17.7 0.8-1.5 3-2.4 6.1-2.4 0.4 0 0.8 0 1.3 0.1 0.2-0.7 0.5-1.4 1-1.9-0.8-0.1-1.5-0.1-2.2-0.1-3.9 0-6.7 1.2-7.9 3.4-2.9 5.2 3.9 14.2 15.3 20.5 6.2 3.4 12.6 5.3 17.6 5.3 3.9 0 6.7-1.2 7.9-3.4 1.4-3 0.1-7-3.2-11z"></path></g></g><g transform="translate(-63,-63.9)"><path d="m96.1 98.4c-3 0-5.5-2.5-5.5-5.5 0-3 2.5-5.5 5.5-5.5 3 0 5.5 2.5 5.5 5.5 0 3-2.5 5.5-5.5 5.5zm0-9c-1.9 0-3.5 1.6-3.5 3.5 0 1.9 1.6 3.5 3.5 3.5 1.9 0 3.5-1.6 3.5-3.5 0-1.9-1.6-3.5-3.5-3.5z"></path></g><g transform="translate(-63,-63.9)"><path d="M99.1 136.1C79.2 136.1 63 119.9 63 100 63 80.1 79.2 63.9 99.1 63.9c19.9 0 36.1 16.2 36.1 36.1 0 19.9-16.2 36.1-36.1 36.1zm0-70.2C80.3 65.9 65 81.2 65 100c0 18.8 15.3 34.1 34.1 34.1 18.8 0 34.1-15.3 34.1-34.1 0-18.8-15.3-34.1-34.1-34.1z"></path></g></symbol><symbol id="language" xmlns:svg="http://www.w3.org/2000/svg" xmlns="http://www.w3.org/2000/svg" height="72.2" width="72.2" xml:space="preserve" enable-background="new 0 0 200 200" viewBox="0 0 72.2 72.2" y="0" x="0" version="1.1"><g transform="translate(-63,-63.8)"><rect height="2" width="19.9" y="85.7" x="89.2"></rect></g><g transform="translate(-63,-63.8)"><rect height="2" width="29.2" y="89.6" x="85.1"></rect></g><g transform="translate(-63,-63.8)"><rect height="2" width="19.9" y="93.6" x="89.2"></rect></g><g transform="translate(-63,-63.8)"><rect height="2" width="19.9" y="98.9" x="89.2"></rect></g><g transform="translate(-63,-63.8)"><path d="m108.2 112.7-18 0c-0.6 0-1-0.4-1-1l0-7.9c0-0.6 0.4-1 1-1l18.1 0c0.6 0 1 0.4 1 1l0 7.9c-0.1 0.6-0.5 1-1.1 1zm-17-2 16.1 0 0-5.9-16.1 0 0 5.9z"></path></g><g transform="translate(-63,-63.8)"><rect height="8.1" width="2" y="106.1" x="89.2"></rect></g><g transform="translate(-63,-63.8)"><rect height="6.3" width="2" y="108" x="107.2"></rect></g><g transform="translate(-63,-63.8)"><path d="M99.1 136C79.2 136 63 119.8 63 99.9 63 80 79.2 63.8 99.1 63.8c19.9 0 36.1 16.2 36.1 36.1 0 19.9-16.2 36.1-36.1 36.1zm0-70.2C80.3 65.8 65 81.1 65 99.9c0 18.8 15.3 34.1 34.1 34.1 18.8 0 34.1-15.3 34.1-34.1 0-18.8-15.3-34.1-34.1-34.1z"></path></g></symbol><symbol id="medicine" xmlns:svg="http://www.w3.org/2000/svg" xmlns="http://www.w3.org/2000/svg" height="72.2" width="72.2" xml:space="preserve" enable-background="new 0 0 200 200" viewBox="0 0 72.2 72.2" y="0" x="0" version="1.1"><g transform="translate(-63,-63.9)"><path d="M98.8 120.1 98.5 120c-1.5-0.5-14.7-5-18.3-15.2 0-0.1-0.1-0.2-0.1-0.4L80 104.2c-2.4-7.2 0.1-14.4 6.1-17.7 4.5-2.2 9.3-1.4 12.7 2 2.1-2.1 4.8-3.2 7.6-3.2 1.7 0 3.4 0.4 5.1 1.2 3.8 2 6.3 5.7 6.9 10 0.2 1.4 0.2 2.8 0 4.3l0 0.3c-0.2 1.2-0.5 2.5-0.9 3.6-3.7 10.2-16.9 14.7-18.3 15.2l-0.4 0.2zM91.2 87.4c-1.4 0-2.8 0.3-4.2 1-5.1 2.8-7.2 9-5.1 15.2l0.1 0.3c0 0.1 0.1 0.2 0.1 0.3 3.2 8.8 14.7 13.1 16.8 13.9 2.1-0.7 13.6-5 16.8-13.8 0.4-1.1 0.7-2.2 0.9-3.3l0-0.2c0.2-1.3 0.2-2.6 0-3.7-0.5-3.7-2.7-6.8-5.9-8.5-1.3-0.7-2.8-1-4.2-1-2.6 0-5 1.1-6.8 3.3l-0.8 0.9-0.8-0.9c-1.9-2.4-4.3-3.5-6.9-3.5z"></path></g><g transform="translate(-63,-63.9)"><path d="m96.8 110c-0.4 0-0.7-0.2-0.9-0.6l-3.3-6.9-8.8 0 0-2 9.4 0c0.4 0 0.7 0.2 0.9 0.6l2.4 5.1 3.4-12c0.1-0.4 0.5-0.7 0.9-0.7 0.4 0 0.8 0.3 1 0.7l2.1 6.6 9.8 0 0 2-10.5 0c-0.4 0-0.8-0.3-1-0.7l-1.3-4.1-3.2 11.4c0 0.3-0.4 0.6-0.9 0.6 0.1 0 0.1 0 0 0z"></path></g><g transform="translate(-63,-63.9)"><path d="M99.1 136.1C79.2 136.1 63 119.9 63 100 63 80.1 79.2 63.9 99.1 63.9c19.9 0 36.1 16.2 36.1 36.1 0 19.9-16.2 36.1-36.1 36.1zm0-70.2C80.3 65.9 65 81.2 65 100c0 18.8 15.3 34.1 34.1 34.1 18.8 0 34.1-15.3 34.1-34.1 0-18.8-15.3-34.1-34.1-34.1z"></path></g></symbol><symbol id="philosophy" xmlns:svg="http://www.w3.org/2000/svg" xmlns="http://www.w3.org/2000/svg" height="72.2" width="72.2" xml:space="preserve" enable-background="new 0 0 200 200" viewBox="0 0 72.2 72.2" y="0" x="0" version="1.1"><g transform="translate(-63,-64.4)"><path d="m100 107.8-1.9 0c-7 0-12.7-5.7-12.7-12.7l0-6.8 2 0 0 6.8c0 5.9 4.8 10.7 10.7 10.7l1.9 0c5.9 0 10.7-4.8 10.7-10.7l0-7 2 0 0 7c0 7-5.7 12.7-12.7 12.7z"></path></g><g transform="translate(-63,-64.4)"><rect height="29.8" width="2" y="88.1" x="98.1"></rect></g><g transform="translate(-63,-64.4)"><path d="M99.1 136.6C79.2 136.6 63 120.4 63 100.5 63 80.6 79.2 64.4 99.1 64.4c19.9 0 36.1 16.2 36.1 36.1 0 19.9-16.2 36.1-36.1 36.1zm0-70.2C80.3 66.4 65 81.7 65 100.5c0 18.8 15.3 34.1 34.1 34.1 18.8 0 34.1-15.3 34.1-34.1 0-18.8-15.3-34.1-34.1-34.1z"></path></g></symbol></svg>